<?xml version="1.0" standalone="no"?>
<!DOCTYPE svg PUBLIC "-//W3C//DTD SVG 20010904//EN"
 "http://www.w3.org/TR/2001/REC-SVG-20010904/DTD/svg10.dtd">
<svg version="1.0" xmlns="http://www.w3.org/2000/svg"
 width="298.000000pt" height="207.000000pt" viewBox="0 0 298.000000 207.000000"
 preserveAspectRatio="xMidYMid meet">
<g transform="translate(0.000000,207.000000) scale(0.100000,-0.100000)"
fill="#000000" stroke="none">
<path d="M1892 2052 c-20 -11 -74 -73 -142 -164 -68 -90 -142 -175 -191 -220
-77 -70 -84 -79 -160 -231 -43 -87 -79 -165 -79 -173 0 -44 -77 19 -135 111
-21 33 -60 86 -88 118 -41 48 -54 57 -82 57 -38 0 -45 -9 -158 -172 -59 -85
-73 -99 -106 -108 -23 -6 -52 -24 -69 -44 -16 -19 -93 -160 -170 -314 -78
-155 -161 -316 -185 -359 -24 -43 -81 -148 -127 -233 -72 -137 -171 -289 -192
-298 -11 -5 -10 -22 0 -22 18 0 194 169 226 215 31 47 310 531 388 675 37 68
61 82 66 40 3 -27 -132 -307 -211 -440 -25 -41 -43 -77 -41 -79 4 -4 21 3 74
29 8 4 31 29 50 56 19 28 52 70 74 95 l39 44 -7 -35 c-3 -19 -9 -47 -12 -62
-8 -37 9 -36 21 0 6 16 48 143 94 283 89 271 106 311 143 346 29 27 105 48
142 39 36 -9 115 -83 132 -123 26 -61 18 -105 -40 -218 -80 -154 -143 -257
-193 -314 -46 -53 -196 -168 -353 -270 -123 -81 -187 -141 -149 -141 6 0 23 9
38 19 15 11 67 36 116 56 241 99 373 216 551 490 88 136 170 305 273 565 52
129 103 245 114 258 13 14 32 22 54 22 42 0 43 -17 4 -131 -32 -95 -51 -136
-126 -264 -57 -97 -94 -179 -119 -264 -17 -58 -21 -121 -8 -121 16 0 32 25 32
51 0 40 70 173 167 317 106 157 150 250 198 416 59 208 75 224 115 108 31 -92
42 -106 100 -138 27 -15 50 -31 50 -35 0 -4 -14 -22 -31 -39 -31 -31 -32 -32
-13 -49 20 -20 68 -17 247 10 66 11 68 12 51 30 -9 10 -24 19 -33 19 -25 0
-59 28 -86 71 -17 26 -44 48 -84 68 -65 33 -68 38 -78 150 l-6 74 27 -18 c15
-10 34 -31 42 -46 30 -60 78 -101 158 -138 45 -21 125 -67 178 -103 54 -36
133 -80 175 -98 91 -37 135 -62 256 -142 91 -60 119 -68 153 -44 18 14 17 16
-21 49 -22 20 -94 68 -160 108 -204 124 -348 224 -395 276 -25 27 -81 94 -124
148 -80 101 -185 194 -263 234 -50 25 -68 26 -111 3z"/>
</g>
</svg>
